<svg width="1400" height="900" viewBox="0 0 1400 900" fill="none" xmlns="http://www.w3.org/2000/svg">
  <rect width="1400" height="900" fill="#FFF8EF"/>
  <rect x="780" y="120" width="520" height="520" rx="120" fill="#FFEFD6"/>
  <circle cx="1030" cy="260" r="140" fill="#FFD1B0"/>
  <circle cx="1150" cy="420" r="110" fill="#FAD2D2"/>
  <circle cx="920" cy="470" r="90" fill="#D7F1E5"/>
  <rect x="830" y="520" width="420" height="120" rx="60" fill="#FFF2E2"/>
  <circle cx="900" cy="580" r="48" fill="#FFB347"/>
  <circle cx="1030" cy="580" r="48" fill="#FF7F7F"/>
  <circle cx="1160" cy="580" r="48" fill="#5B8D6B"/>
  <rect x="760" y="660" width="520" height="120" rx="50" fill="#FFE1B8"/>
  <circle cx="260" cy="580" r="180" fill="#FFE8C6"/>
  <circle cx="240" cy="540" r="120" fill="#FFDFAE"/>
  <circle cx="320" cy="640" r="90" fill="#FFC98A"/>
  <path d="M180 300C240 260 320 250 420 260C520 270 610 310 660 360C710 410 720 460 700 520C680 590 620 640 520 660C420 680 300 670 220 610C150 560 120 470 140 390C150 350 160 320 180 300Z" fill="#DFF3E4"/>
  <circle cx="480" cy="420" r="70" fill="#BEE7CE"/>
  <circle cx="550" cy="470" r="50" fill="#A7DDBB"/>
</svg>
