<svg width="1400" height="900" viewBox="0 0 1400 900" fill="none" xmlns="http://www.w3.org/2000/svg">
  <rect width="1400" height="900" fill="#FFF8EF"/>
  <circle cx="1040" cy="220" r="200" fill="#FFE4BF"/>
  <circle cx="1180" cy="420" r="160" fill="#FFD1B0"/>
  <circle cx="980" cy="520" r="140" fill="#DFF3E4"/>
  <circle cx="1160" cy="620" r="120" fill="#FAD2D2"/>
  <rect x="820" y="300" width="340" height="360" rx="120" fill="#FFF2E2"/>
  <rect x="880" y="360" width="220" height="240" rx="90" fill="#FFF7EB"/>
  <circle cx="930" cy="440" r="60" fill="#FFB347"/>
  <circle cx="1080" cy="440" r="60" fill="#FF7F7F"/>
  <circle cx="1005" cy="540" r="60" fill="#5B8D6B"/>
  <path d="M180 680C220 600 300 560 400 540C520 510 640 530 720 590C780 630 820 690 840 760H160C160 730 170 700 180 680Z" fill="#E8F5E9"/>
  <circle cx="300" cy="560" r="120" fill="#CDEED9"/>
  <circle cx="260" cy="640" r="90" fill="#BEE7CE"/>
  <circle cx="360" cy="650" r="70" fill="#A7DDBB"/>
  <circle cx="520" cy="620" r="100" fill="#FFE1B8"/>
  <circle cx="560" cy="650" r="70" fill="#FFC98A"/>
</svg>
